HIERARCHY
ROOT Haolin_28_06:Solving:Hips
{
	OFFSET 0.000000 0.000000 0.000000
	CHANNELS 6 Xposition Yposition Zposition Xrotation Yrotation Zrotation
	JOINT Haolin_28_06:Solving:Spine
	{
		OFFSET 0.000000 -12.181966 2.015561
		CHANNELS 6 Xposition Yposition Zposition Xrotation Yrotation Zrotation
		JOINT Haolin_28_06:Solving:Spine1
		{
			OFFSET 0.000000 -8.890296 1.567602
			CHANNELS 6 Xposition Yposition Zposition Xrotation Yrotation Zrotation
			JOINT Haolin_28_06:Solving:Spine2
			{
				OFFSET 0.000000 -8.993092 0.786796
				CHANNELS 6 Xposition Yposition Zposition Xrotation Yrotation Zrotation
				JOINT Haolin_28_06:Solving:Spine3
				{
					OFFSET 0.000000 -9.027443 0.000000
					CHANNELS 6 Xposition Yposition Zposition Xrotation Yrotation Zrotation
					JOINT Haolin_28_06:Solving:Neck
					{
						OFFSET 0.000000 -11.606712 -1.160669
						CHANNELS 6 Xposition Yposition Zposition Xrotation Yrotation Zrotation
						JOINT Haolin_28_06:Solving:Neck1
						{
							OFFSET 0.000000 -7.471592 -0.653680
							CHANNELS 6 Xposition Yposition Zposition Xrotation Yrotation Zrotation
							JOINT Haolin_28_06:Solving:Head
							{
								OFFSET 0.000000 -7.386181 -1.302382
								CHANNELS 6 Xposition Yposition Zposition Xrotation Yrotation Zrotation
								JOINT Haolin_28_06:Solving:HeadEnd
								{
									OFFSET 0.000000 -9.728081 0.000002
									CHANNELS 6 Xposition Yposition Zposition Xrotation Yrotation Zrotation
									End Site
									{
										OFFSET 0.000000 -9.728081 0.000002
									}
								}
							}
						}
					}
					JOINT Haolin_28_06:Solving:RightShoulder
					{
						OFFSET 0.000000 -8.290508 -5.270916
						CHANNELS 6 Xposition Yposition Zposition Xrotation Yrotation Zrotation
						JOINT Haolin_28_06:Solving:RightArm
						{
							OFFSET -19.261074 -0.000008 0.000000
							CHANNELS 6 Xposition Yposition Zposition Xrotation Yrotation Zrotation
							JOINT Haolin_28_06:Solving:RightForeArm
							{
								OFFSET -30.691700 -0.000011 0.000000
								CHANNELS 6 Xposition Yposition Zposition Xrotation Yrotation Zrotation
								JOINT Haolin_28_06:Solving:RightHand
								{
									OFFSET -20.216934 -0.000008 0.000000
									CHANNELS 6 Xposition Yposition Zposition Xrotation Yrotation Zrotation
									JOINT Haolin_28_06:Solving:RightHandThumb1
									{
										OFFSET -4.948814 2.881329 -3.679893
										CHANNELS 6 Xposition Yposition Zposition Xrotation Yrotation Zrotation
										End Site
										{
											OFFSET -7.039886 -0.000004 -7.104978
										}
									}
									JOINT Haolin_28_06:Solving:RightHandMiddle1
									{
										OFFSET -13.196846 -0.000004 0.084595
										CHANNELS 6 Xposition Yposition Zposition Xrotation Yrotation Zrotation
										End Site
										{
											OFFSET -10.002037 -0.000004 0.000000
										}
									}
								}
							}
						}
					}
					JOINT Haolin_28_06:Solving:LeftShoulder
					{
						OFFSET 0.000000 -8.290508 -5.270916
						CHANNELS 6 Xposition Yposition Zposition Xrotation Yrotation Zrotation
						JOINT Haolin_28_06:Solving:LeftArm
						{
							OFFSET 19.261074 -0.000008 0.000000
							CHANNELS 6 Xposition Yposition Zposition Xrotation Yrotation Zrotation
							JOINT Haolin_28_06:Solving:LeftForeArm
							{
								OFFSET 30.691700 -0.000011 0.000000
								CHANNELS 6 Xposition Yposition Zposition Xrotation Yrotation Zrotation
								JOINT Haolin_28_06:Solving:LeftHand
								{
									OFFSET 20.216934 -0.000008 0.000000
									CHANNELS 6 Xposition Yposition Zposition Xrotation Yrotation Zrotation
									JOINT Haolin_28_06:Solving:LeftHandThumb1
									{
										OFFSET 4.948814 2.881329 -3.679893
										CHANNELS 6 Xposition Yposition Zposition Xrotation Yrotation Zrotation
										End Site
										{
											OFFSET 7.039886 -0.000004 -7.104978
										}
									}
									JOINT Haolin_28_06:Solving:LeftHandMiddle1
									{
										OFFSET 13.196846 -0.000004 0.084595
										CHANNELS 6 Xposition Yposition Zposition Xrotation Yrotation Zrotation
										End Site
										{
											OFFSET 10.002037 -0.000004 0.000000
										}
									}
								}
							}
						}
					}
				}
			}
		}
	}
	JOINT Haolin_28_06:Solving:RightUpLeg
	{
		OFFSET -10.083070 0.000000 0.000000
		CHANNELS 6 Xposition Yposition Zposition Xrotation Yrotation Zrotation
		JOINT Haolin_28_06:Solving:RightLeg
		{
			OFFSET 0.000000 47.042522 -0.000008
			CHANNELS 6 Xposition Yposition Zposition Xrotation Yrotation Zrotation
			JOINT Haolin_28_06:Solving:RightFoot
			{
				OFFSET 0.000000 38.766415 -0.000006
				CHANNELS 6 Xposition Yposition Zposition Xrotation Yrotation Zrotation
				JOINT Haolin_28_06:Solving:RightForeFoot
				{
					OFFSET 0.000000 3.531212 -0.000000
					CHANNELS 6 Xposition Yposition Zposition Xrotation Yrotation Zrotation
					JOINT Haolin_28_06:Solving:RightToeBase
					{
						OFFSET 0.000000 0.000000 -13.829352
						CHANNELS 6 Xposition Yposition Zposition Xrotation Yrotation Zrotation
						JOINT Haolin_28_06:Solving:RightToeBaseEnd
						{
							OFFSET 0.000000 0.000000 -4.034167
							CHANNELS 6 Xposition Yposition Zposition Xrotation Yrotation Zrotation
							End Site
							{
								OFFSET 0.000000 -4.034164 0.000004
							}
						}
					}
				}
			}
		}
	}
	JOINT Haolin_28_06:Solving:LeftUpLeg
	{
		OFFSET 10.083070 0.000000 0.000000
		CHANNELS 6 Xposition Yposition Zposition Xrotation Yrotation Zrotation
		JOINT Haolin_28_06:Solving:LeftLeg
		{
			OFFSET 0.000000 47.042522 -0.000008
			CHANNELS 6 Xposition Yposition Zposition Xrotation Yrotation Zrotation
			JOINT Haolin_28_06:Solving:LeftFoot
			{
				OFFSET 0.000000 38.766415 -0.000006
				CHANNELS 6 Xposition Yposition Zposition Xrotation Yrotation Zrotation
				JOINT Haolin_28_06:Solving:LeftForeFoot
				{
					OFFSET 0.000000 3.531212 -0.000000
					CHANNELS 6 Xposition Yposition Zposition Xrotation Yrotation Zrotation
					JOINT Haolin_28_06:Solving:LeftToeBase
					{
						OFFSET 0.000000 0.000000 -13.829352
						CHANNELS 6 Xposition Yposition Zposition Xrotation Yrotation Zrotation
						JOINT Haolin_28_06:Solving:LeftToeBaseEnd
						{
							OFFSET 0.000000 0.000000 -4.855067
							CHANNELS 6 Xposition Yposition Zposition Xrotation Yrotation Zrotation
							End Site
							{
								OFFSET 0.000000 -4.855064 0.000004
							}
						}
					}
				}
			}
		}
	}
}
MOTION
Frames: 4
Frame Time: 0.041667
32.130745 -177.459045 -79.461914 125.085503 -4.595742 -4.960907 -0.000004 -12.181959 2.015534 25.044376 0.055791 -1.970779 -0.000002 -8.890309 1.567596 11.923412 -0.000311 -1.389504 0.000001 -8.993084 0.786787 12.261762 1.320747 3.044387 0.000000 -9.027433 -0.000009 -3.466720 0.035243 4.274331 0.000002 -11.606739 -1.160666 -14.589687 1.637701 1.679647 -0.000005 -7.471626 -0.653673 -15.009112 2.494784 -1.607383 0.000001 -7.386199 -1.302376 -7.358767 0.386939 -1.018213 0.000005 -9.728088 0.000013 0.000009 0.000000 -0.000000 0.000001 -8.290504 -5.270917 -0.000009 18.033103 20.424779 -19.261066 -0.000002 0.000017 -94.152915 -47.747161 -102.185463 -30.691727 -0.000035 -0.000019 -31.460251 -10.982596 -6.648580 -20.216927 -0.000006 0.000017 6.712233 -17.506154 21.367636 -4.948804 2.881339 -3.679886 -0.000012 -0.000003 0.000003 -13.196873 -0.000016 0.084586 -0.000002 -0.000000 0.000004 0.000000 -8.290520 -5.270911 -0.000003 -9.948895 -17.991975 19.261076 -0.000022 0.000005 -85.067322 63.233365 88.371481 30.691698 0.000008 -0.000010 -23.278854 5.797595 2.488482 20.216930 -0.000030 0.000006 1.373918 5.141793 -14.982170 4.948797 2.881336 -3.679895 -0.000001 0.000003 -0.000003 13.196861 -0.000015 0.084570 -0.000000 -0.000000 -0.000000 -10.083071 -0.000013 -0.000035 -82.444167 10.396017 18.364729 0.000009 47.042542 0.000016 66.970490 0.000001 -0.000001 0.000011 38.766415 -0.000035 -13.800157 8.218033 6.351234 0.000001 3.531197 0.000025 0.000004 -0.000004 0.000000 0.000013 0.000006 -13.829341 -6.056525 0.000000 0.000001 0.000001 -0.000008 -4.034140 -0.000000 0.000000 -0.000000 10.083066 0.000014 -0.000003 -81.574227 -8.937102 -19.241995 0.000003 47.042511 0.000008 68.064720 -0.000005 -0.000005 0.000023 38.766426 -0.000010 -11.080291 -7.011805 9.743186 -0.000004 3.531204 -0.000007 -0.000001 -0.000001 -0.000000 0.000012 0.000002 -13.829368 -0.810917 -0.000005 -0.000001 0.000010 0.000007 -4.855071 -0.000001 0.000001 0.000001 
32.476868 -177.441162 -79.435471 125.061406 -4.444735 -4.847574 0.000000 -12.181967 2.015548 25.045662 0.070357 -1.918681 0.000002 -8.890290 1.567621 11.948035 -0.009460 -1.344150 -0.000004 -8.993072 0.786780 12.317088 1.203574 2.994035 -0.000002 -9.027482 -0.000005 -3.435718 -0.016321 4.234969 0.000006 -11.606714 -1.160681 -14.718204 1.630345 1.817859 0.000001 -7.471587 -0.653703 -14.950244 2.461324 -1.704377 -0.000001 -7.386184 -1.302387 -7.352758 0.392689 -1.055942 0.000001 -9.728081 0.000015 0.000001 0.000000 -0.000000 0.000008 -8.290501 -5.270935 -0.000007 17.992113 20.394721 -19.261078 0.000016 -0.000002 -94.282135 -47.919187 -102.175238 -30.691690 -0.000036 0.000011 -31.495061 -10.771837 -6.532438 -20.216940 0.000002 -0.000006 6.797430 -17.637773 21.474330 -4.948824 2.881292 -3.679864 0.000002 -0.000000 0.000007 -13.196858 -0.000050 0.084594 0.000001 -0.000003 0.000003 0.000008 -8.290504 -5.270935 -0.000004 -9.991938 -17.902151 19.261065 -0.000001 -0.000012 -85.578439 63.518259 88.593578 30.691706 0.000006 -0.000006 -23.002832 5.782222 2.449084 20.216923 -0.000014 0.000013 1.338972 5.076482 -14.796951 4.948823 2.881305 -3.679894 0.000001 -0.000002 -0.000009 13.196854 -0.000014 0.084592 -0.000004 0.000002 -0.000009 -10.083067 -0.000021 -0.000005 -82.339194 10.241100 18.327360 -0.000001 47.042526 -0.000014 66.885427 -0.000002 -0.000003 0.000002 38.766415 -0.000013 -13.654620 8.283096 6.181508 0.000003 3.531212 -0.000017 0.000002 0.000001 0.000000 0.000012 0.000008 -13.829336 -6.018378 0.000003 -0.000000 0.000003 -0.000015 -4.034148 0.000000 0.000003 0.000001 10.083062 -0.000001 0.000012 -80.896480 -8.701074 -19.503901 -0.000018 47.042519 -0.000004 65.990494 -0.000005 -0.000004 -0.000012 38.766418 -0.000053 -10.662975 -7.084457 9.373288 0.000031 3.531219 -0.000017 0.000000 0.000002 0.000000 -0.000001 -0.000004 -13.829370 -1.244401 0.000001 -0.000000 -0.000011 -0.000000 -4.855074 -0.000000 0.000001 0.000001 
32.859493 -177.411133 -79.404205 125.006505 -4.286513 -4.764882 -0.000003 -12.181991 2.015569 25.052934 0.063543 -1.872198 0.000005 -8.890290 1.567613 11.978085 -0.014978 -1.318854 0.000005 -8.993099 0.786798 12.394848 1.122372 2.975641 -0.000005 -9.027422 0.000012 -3.412252 -0.058831 4.235831 -0.000003 -11.606721 -1.160666 -14.815766 1.624810 1.898982 -0.000005 -7.471598 -0.653693 -14.888499 2.404481 -1.762155 -0.000002 -7.386183 -1.302389 -7.339104 0.391949 -1.076222 0.000001 -9.728081 -0.000043 0.000002 0.000000 0.000000 -0.000001 -8.290535 -5.270917 -0.000007 17.985847 20.312356 -19.261068 0.000001 0.000002 -94.469378 -48.161132 -102.212961 -30.691704 -0.000037 -0.000008 -31.470547 -10.547248 -6.392836 -20.216925 -0.000014 0.000011 6.858998 -17.720863 21.563343 -4.948799 2.881334 -3.679895 -0.000003 0.000007 0.000001 -13.196847 -0.000006 0.084574 0.000001 0.000001 -0.000001 -0.000002 -8.290539 -5.270924 -0.000004 -10.041282 -17.812614 19.261057 0.000007 -0.000007 -86.171244 63.904295 88.886012 30.691706 0.000000 0.000013 -22.642886 5.708722 2.376023 20.216940 -0.000018 -0.000002 1.317684 5.028083 -14.705549 4.948827 2.881298 -3.679888 -0.000000 -0.000003 -0.000003 13.196844 -0.000006 0.084600 -0.000003 0.000002 -0.000003 -10.083076 0.000012 0.000029 -82.224406 10.110896 18.362475 0.000014 47.042538 0.000024 66.802501 0.000003 -0.000004 -0.000011 38.766422 0.000029 -13.555905 8.257847 5.985854 -0.000012 3.531204 0.000050 0.000002 0.000003 -0.000001 0.000004 0.000014 -13.829338 -5.954313 0.000003 -0.000000 0.000001 -0.000008 -4.034169 0.000000 0.000001 0.000001 10.083060 -0.000031 0.000011 -80.030897 -8.658226 -19.727530 0.000020 47.042519 0.000023 63.405753 -0.000003 -0.000003 -0.000009 38.766418 -0.000023 -10.033546 -7.022044 9.168633 0.000006 3.531219 -0.000027 0.000000 0.000002 0.000000 -0.000011 0.000002 -13.829315 -1.608056 0.000005 -0.000000 -0.000017 0.000008 -4.855079 0.000000 0.000003 -0.000000 
33.269470 -177.365341 -79.374382 124.892113 -4.085184 -4.736688 -0.000009 -12.181946 2.015571 25.079867 0.046624 -1.805045 -0.000000 -8.890281 1.567635 12.052427 -0.020771 -1.283493 0.000004 -8.993101 0.786810 12.487873 1.037972 2.993700 0.000002 -9.027449 0.000009 -3.418620 -0.100121 4.251862 0.000010 -11.606714 -1.160673 -14.878309 1.601979 1.993332 0.000003 -7.471613 -0.653673 -14.835326 2.353683 -1.836415 0.000006 -7.386187 -1.302379 -7.313270 0.392682 -1.100099 0.000006 -9.728104 -0.000007 0.000007 0.000000 -0.000000 0.000007 -8.290546 -5.270914 -0.000011 18.002608 20.212458 -19.261074 -0.000018 -0.000005 -94.616418 -48.761086 -102.242324 -30.691715 -0.000043 -0.000010 -31.587350 -10.477143 -6.380044 -20.216925 -0.000017 0.000010 6.963457 -17.663812 21.925792 -4.948812 2.881321 -3.679899 -0.000008 0.000007 0.000004 -13.196867 -0.000003 0.084571 -0.000009 0.000000 0.000002 0.000006 -8.290546 -5.270913 -0.000006 -10.085468 -17.719742 19.261068 -0.000025 0.000017 -86.824852 64.319181 89.247568 30.691702 0.000003 0.000008 -22.274056 5.611720 2.293665 20.216925 -0.000022 -0.000004 1.307303 5.006216 -14.655615 4.948817 2.881326 -3.679872 0.000000 -0.000003 -0.000007 13.196859 -0.000010 0.084607 0.000002 -0.000001 -0.000003 -10.083073 0.000011 0.000020 -82.105649 10.056507 18.486259 -0.000001 47.042484 0.000001 66.757593 0.000002 -0.000004 0.000012 38.766422 0.000022 -13.443825 8.089444 5.788998 0.000007 3.531235 0.000019 0.000001 0.000001 -0.000001 0.000008 0.000008 -13.829364 -5.857604 -0.000001 0.000000 0.000014 0.000000 -4.034196 -0.000000 0.000004 0.000000 10.083060 0.000037 0.000018 -78.927979 -8.820670 -19.941955 -0.000016 47.042492 0.000035 60.309922 -0.000003 -0.000002 -0.000013 38.766422 -0.000019 -9.288045 -6.774995 8.971447 -0.000034 3.531197 0.000005 -0.000000 0.000003 -0.000001 -0.000015 0.000001 -13.829354 -1.618625 -0.000001 0.000001 0.000016 -0.000008 -4.855061 0.000000 0.000001 0.000001 
